<svg width="16" height="18" viewBox="0 0 16 18" fill="none" xmlns="http://www.w3.org/2000/svg">
<path d="M12.6293 5.6517C12.6293 4.41799 12.1392 3.23482 11.2668 2.36245C10.3944 1.49009 9.21126 1 7.97755 1C6.74385 1 5.56067 1.49009 4.6883 2.36245C3.81594 3.23482 3.32585 4.41799 3.32585 5.6517C3.32585 11.0787 1 12.6293 1 12.6293H14.9551C14.9551 12.6293 12.6293 11.0787 12.6293 5.6517Z" stroke="white" stroke-width="2" stroke-linecap="round" stroke-linejoin="round"/>
<path d="M9.31871 15.7305C9.18241 15.9654 8.98677 16.1605 8.75138 16.2961C8.51599 16.4316 8.24911 16.503 7.97747 16.503C7.70583 16.503 7.43895 16.4316 7.20356 16.2961C6.96817 16.1605 6.77253 15.9654 6.63623 15.7305" stroke="white" stroke-width="2" stroke-linecap="round" stroke-linejoin="round"/>
</svg>
