<svg width="37" height="39" viewBox="0 0 37 39" fill="none" xmlns="http://www.w3.org/2000/svg">
<path d="M27.2523 15.2994C24.7646 14.5513 23.3531 11.9355 24.0988 9.4555C24.3271 8.69653 24.7319 8.03846 25.2537 7.51232C24.3119 6.97384 23.2952 6.53289 22.2111 6.20691C14.5423 3.90089 6.46159 8.22933 4.16265 15.8746C1.86371 23.5199 6.21698 31.5872 13.8858 33.8932C21.5546 36.1993 29.6353 31.8708 31.9343 24.2256C32.9307 20.9117 32.6768 17.518 31.445 14.5494C30.2898 15.4202 28.747 15.7488 27.2523 15.2994Z" fill="#4863E8"/>
<path d="M27.2523 15.2994C24.7646 14.5513 23.3531 11.9355 24.0988 9.4555C24.3271 8.69653 24.7319 8.03846 25.2537 7.51232C24.3119 6.97384 23.2952 6.53289 22.2111 6.20691C14.5423 3.90089 6.46159 8.22933 4.16265 15.8746C1.86371 23.5199 6.21698 31.5872 13.8858 33.8932C21.5546 36.1993 29.6353 31.8708 31.9343 24.2256C32.9307 20.9117 32.6768 17.518 31.445 14.5494C30.2898 15.4202 28.747 15.7488 27.2523 15.2994Z" fill="url(#paint0_linear_1034_9856)" fill-opacity="0.2"/>
<path d="M25.2536 7.51256C28.0881 9.13304 30.236 11.6369 31.4448 14.5497C32.2116 13.9713 32.8084 13.153 33.1057 12.1642C33.8515 9.68414 32.4399 7.06831 29.9523 6.32027C28.227 5.80148 26.4367 6.31921 25.2536 7.51256Z" fill="#4863E8"/>
<path d="M25.2536 7.51256C28.0881 9.13304 30.236 11.6369 31.4448 14.5497C32.2116 13.9713 32.8084 13.153 33.1057 12.1642C33.8515 9.68414 32.4399 7.06831 29.9523 6.32027C28.227 5.80148 26.4367 6.31921 25.2536 7.51256Z" fill="white"/>
<defs>
<linearGradient id="paint0_linear_1034_9856" x1="4.16265" y1="15.8746" x2="31.9343" y2="24.2255" gradientUnits="userSpaceOnUse">
<stop stop-color="#EF015A"/>
<stop offset="1" stop-color="#EF015A" stop-opacity="0"/>
</linearGradient>
</defs>
</svg>
