<svg width="19" height="5" viewBox="0 0 19 5" fill="none" xmlns="http://www.w3.org/2000/svg">
<path d="M9.20728 3.31543C9.75956 3.31543 10.2073 2.86771 10.2073 2.31543C10.2073 1.76314 9.75956 1.31543 9.20728 1.31543C8.65499 1.31543 8.20728 1.76314 8.20728 2.31543C8.20728 2.86771 8.65499 3.31543 9.20728 3.31543Z" stroke="white" stroke-width="2" stroke-linecap="round" stroke-linejoin="round"/>
<path d="M16.2073 3.31543C16.7596 3.31543 17.2073 2.86771 17.2073 2.31543C17.2073 1.76314 16.7596 1.31543 16.2073 1.31543C15.655 1.31543 15.2073 1.76314 15.2073 2.31543C15.2073 2.86771 15.655 3.31543 16.2073 3.31543Z" stroke="white" stroke-width="2" stroke-linecap="round" stroke-linejoin="round"/>
<path d="M2.20728 3.31543C2.75956 3.31543 3.20728 2.86771 3.20728 2.31543C3.20728 1.76314 2.75956 1.31543 2.20728 1.31543C1.65499 1.31543 1.20728 1.76314 1.20728 2.31543C1.20728 2.86771 1.65499 3.31543 2.20728 3.31543Z" stroke="white" stroke-width="2" stroke-linecap="round" stroke-linejoin="round"/>
</svg>
