<svg width="19" height="18" viewBox="0 0 19 18" fill="none" xmlns="http://www.w3.org/2000/svg">
<path d="M7.08917 1.19922H2.41669C1.9866 1.19922 1.63794 1.54788 1.63794 1.97797V6.65045C1.63794 7.08054 1.9866 7.4292 2.41669 7.4292H7.08917C7.51926 7.4292 7.86792 7.08054 7.86792 6.65045V1.97797C7.86792 1.54788 7.51926 1.19922 7.08917 1.19922Z" stroke="white" stroke-width="2" stroke-linecap="round" stroke-linejoin="round"/>
<path d="M7.08917 10.5449H2.41669C1.9866 10.5449 1.63794 10.8936 1.63794 11.3237V15.9962C1.63794 16.4262 1.9866 16.7749 2.41669 16.7749H7.08917C7.51926 16.7749 7.86792 16.4262 7.86792 15.9962V11.3237C7.86792 10.8936 7.51926 10.5449 7.08917 10.5449Z" stroke="white" stroke-width="2" stroke-linecap="round" stroke-linejoin="round"/>
<path d="M16.4334 1.19922H11.7609C11.3308 1.19922 10.9822 1.54788 10.9822 1.97797V6.65045C10.9822 7.08054 11.3308 7.4292 11.7609 7.4292H16.4334C16.8635 7.4292 17.2122 7.08054 17.2122 6.65045V1.97797C17.2122 1.54788 16.8635 1.19922 16.4334 1.19922Z" stroke="white" stroke-width="2" stroke-linecap="round" stroke-linejoin="round"/>
<path d="M10.9822 10.5449V13.6599" stroke="white" stroke-width="2" stroke-linecap="round" stroke-linejoin="round"/>
<path d="M10.9822 16.7749H14.0972V10.5449" stroke="white" stroke-width="2" stroke-linecap="round" stroke-linejoin="round"/>
<path d="M14.0996 12.1016H17.2146" stroke="white" stroke-width="2" stroke-linecap="round" stroke-linejoin="round"/>
<path d="M17.2129 15.2168V16.7743" stroke="white" stroke-width="2" stroke-linecap="round" stroke-linejoin="round"/>
</svg>
