<svg width="69" height="69" viewBox="0 0 69 69" fill="none" xmlns="http://www.w3.org/2000/svg">
  <path d="M36.6562 38.8125C41.4197 38.8125 45.2812 34.951 45.2812 30.1875C45.2812 25.424 41.4197 21.5625 36.6562 21.5625C31.8928 21.5625 28.0312 25.424 28.0312 30.1875C28.0312 34.951 31.8928 38.8125 36.6562 38.8125Z" stroke-width="4" stroke-linecap="round" stroke-linejoin="round"/>
  <path d="M8.625 29.1094H15.0938" stroke-width="4" stroke-linecap="round" stroke-linejoin="round"/>
  <path d="M8.625 18.3281H15.0938" stroke-width="4" stroke-linecap="round" stroke-linejoin="round"/>
  <path d="M8.625 39.8906H15.0938" stroke-width="4" stroke-linecap="round" stroke-linejoin="round"/>
  <path d="M8.625 50.6719H15.0938" stroke-width="4" stroke-linecap="round" stroke-linejoin="round"/>
  <path d="M23.7188 45.2812C25.2251 43.2728 27.1784 41.6426 29.424 40.5198C31.6695 39.397 34.1456 38.8125 36.6562 38.8125C39.1669 38.8125 41.643 39.397 43.8885 40.5198C46.1341 41.6426 48.0874 43.2728 49.5938 45.2812" stroke-width="4" stroke-linecap="round" stroke-linejoin="round"/>
  <path d="M58.2188 58.2188V10.7812C58.2188 9.59039 57.2534 8.625 56.0625 8.625L17.25 8.625C16.0591 8.625 15.0938 9.59039 15.0938 10.7813V58.2188C15.0938 59.4096 16.0591 60.375 17.25 60.375H56.0625C57.2534 60.375 58.2188 59.4096 58.2188 58.2188Z" stroke-width="4" stroke-linecap="round" stroke-linejoin="round"/>
</svg>
