<svg width="16" height="16" viewBox="0 0 16 16" fill="none" xmlns="http://www.w3.org/2000/svg">
<path d="M12 5.33203C12 4.27117 11.5786 3.25375 10.8284 2.5036C10.0783 1.75346 9.06087 1.33203 8 1.33203C6.93913 1.33203 5.92172 1.75346 5.17157 2.5036C4.42143 3.25375 4 4.27117 4 5.33203C4 9.9987 2 11.332 2 11.332H14C14 11.332 12 9.9987 12 5.33203Z" stroke-width="2" stroke-linecap="round" stroke-linejoin="round"/>
<path d="M9.15335 14C9.03614 14.2021 8.86791 14.3698 8.6655 14.4864C8.46309 14.6029 8.2336 14.6643 8.00001 14.6643C7.76643 14.6643 7.53694 14.6029 7.33453 14.4864C7.13212 14.3698 6.96389 14.2021 6.84668 14" stroke-width="2" stroke-linecap="round" stroke-linejoin="round"/>
</svg>
