<svg width="24" height="24" viewBox="0 0 24 24" fill="none" xmlns="http://www.w3.org/2000/svg">
  <path d="M12 7.5V12" stroke-width="2" stroke-linecap="round" stroke-linejoin="round"/>
  <path d="M15.9 14.25L12 12" stroke-width="2" stroke-linecap="round" stroke-linejoin="round"/>
  <path d="M6.73132 9.34766H2.98132V5.59766" stroke-width="2" stroke-linecap="round" stroke-linejoin="round"/>
  <path d="M6.16882 17.8313C7.32234 18.9857 8.79234 19.7721 10.3929 20.091C11.9934 20.4099 13.6525 20.2469 15.1604 19.6227C16.6683 18.9984 17.9572 17.941 18.864 16.5842C19.7708 15.2273 20.2548 13.632 20.2548 12C20.2548 10.368 19.7708 8.7727 18.864 7.41585C17.9572 6.059 16.6683 5.00158 15.1604 4.37735C13.6525 3.75313 11.9934 3.59014 10.3929 3.90902C8.79234 4.22789 7.32234 5.0143 6.16882 6.16875L2.98132 9.34688" stroke-width="2" stroke-linecap="round" stroke-linejoin="round"/>
</svg>
