<svg width="17" height="17" viewBox="0 0 17 17" fill="none" xmlns="http://www.w3.org/2000/svg">
<path d="M2.5 6.25H9.25C10.0784 6.25 10.75 6.92157 10.75 7.75V14.5C10.75 15.3284 10.0784 16 9.25 16H2.5C1.67157 16 1 15.3284 1 14.5V7.75C1 6.92157 1.67157 6.25 2.5 6.25Z"  stroke-width="2" stroke-linecap="round" stroke-linejoin="round"/>
<path d="M13.75 10.75H14.5C14.8978 10.75 15.2794 10.592 15.5607 10.3107C15.842 10.0294 16 9.64782 16 9.25V2.5C16 2.10218 15.842 1.72064 15.5607 1.43934C15.2794 1.15804 14.8978 1 14.5 1H7.75C7.35218 1 6.97064 1.15804 6.68934 1.43934C6.40804 1.72064 6.25 2.10218 6.25 2.5V3.25"  stroke-width="2" stroke-linecap="round" stroke-linejoin="round"/>
</svg>
