<svg width="18" height="18" viewBox="0 0 18 18" fill="none" xmlns="http://www.w3.org/2000/svg">
<path d="M14.1398 8.94922L15.7499 11.7266" stroke="#4863E8" stroke-width="2" stroke-linecap="round" stroke-linejoin="round"/>
<path d="M14.1398 8.94922L15.7499 11.7266" stroke="url(#paint0_linear_1366_2481)" stroke-opacity="0.2" stroke-width="2" stroke-linecap="round" stroke-linejoin="round"/>
<path d="M10.8419 10.4961L11.3411 13.3297" stroke="#4863E8" stroke-width="2" stroke-linecap="round" stroke-linejoin="round"/>
<path d="M10.8419 10.4961L11.3411 13.3297" stroke="url(#paint1_linear_1366_2481)" stroke-opacity="0.2" stroke-width="2" stroke-linecap="round" stroke-linejoin="round"/>
<path d="M7.15071 10.4922L6.65149 13.3328" stroke="#4863E8" stroke-width="2" stroke-linecap="round" stroke-linejoin="round"/>
<path d="M7.15071 10.4922L6.65149 13.3328" stroke="url(#paint2_linear_1366_2481)" stroke-opacity="0.2" stroke-width="2" stroke-linecap="round" stroke-linejoin="round"/>
<path d="M3.8532 8.94922L2.24304 11.7406" stroke="#4863E8" stroke-width="2" stroke-linecap="round" stroke-linejoin="round"/>
<path d="M3.8532 8.94922L2.24304 11.7406" stroke="url(#paint3_linear_1366_2481)" stroke-opacity="0.2" stroke-width="2" stroke-linecap="round" stroke-linejoin="round"/>
<path d="M2.25 7.375C3.43125 8.8375 5.59687 10.6867 9 10.6867C12.4031 10.6867 14.5688 8.8375 15.75 7.375" stroke="#4863E8" stroke-width="2" stroke-linecap="round" stroke-linejoin="round"/>
<path d="M2.25 7.375C3.43125 8.8375 5.59687 10.6867 9 10.6867C12.4031 10.6867 14.5688 8.8375 15.75 7.375" stroke="url(#paint4_linear_1366_2481)" stroke-opacity="0.2" stroke-width="2" stroke-linecap="round" stroke-linejoin="round"/>
<defs>
<linearGradient id="paint0_linear_1366_2481" x1="14.9448" y1="8.94922" x2="14.9448" y2="11.7266" gradientUnits="userSpaceOnUse">
<stop stop-color="#EF015A"/>
<stop offset="1" stop-color="#EF015A" stop-opacity="0"/>
</linearGradient>
<linearGradient id="paint1_linear_1366_2481" x1="11.0915" y1="10.4961" x2="11.0915" y2="13.3297" gradientUnits="userSpaceOnUse">
<stop stop-color="#EF015A"/>
<stop offset="1" stop-color="#EF015A" stop-opacity="0"/>
</linearGradient>
<linearGradient id="paint2_linear_1366_2481" x1="6.9011" y1="10.4922" x2="6.9011" y2="13.3328" gradientUnits="userSpaceOnUse">
<stop stop-color="#EF015A"/>
<stop offset="1" stop-color="#EF015A" stop-opacity="0"/>
</linearGradient>
<linearGradient id="paint3_linear_1366_2481" x1="3.04812" y1="8.94922" x2="3.04812" y2="11.7406" gradientUnits="userSpaceOnUse">
<stop stop-color="#EF015A"/>
<stop offset="1" stop-color="#EF015A" stop-opacity="0"/>
</linearGradient>
<linearGradient id="paint4_linear_1366_2481" x1="9" y1="7.375" x2="9" y2="10.6867" gradientUnits="userSpaceOnUse">
<stop stop-color="#EF015A"/>
<stop offset="1" stop-color="#EF015A" stop-opacity="0"/>
</linearGradient>
</defs>
</svg>
