<svg width="79" height="77" viewBox="0 0 79 77" fill="none" xmlns="http://www.w3.org/2000/svg">
<path d="M11.2278 60.3051C14.5766 53.5632 16.3128 46.1353 16.2995 38.6075C16.3027 34.9474 17.1265 31.3346 18.7103 28.035C20.2941 24.7354 22.5976 21.8328 25.4514 19.541" stroke="#4863E8" stroke-width="3" stroke-linecap="round" stroke-linejoin="round"/>
<path d="M11.2278 60.3051C14.5766 53.5632 16.3128 46.1353 16.2995 38.6075C16.3027 34.9474 17.1265 31.3346 18.7103 28.035C20.2941 24.7354 22.5976 21.8328 25.4514 19.541" stroke="url(#paint0_linear_1366_2414)" stroke-opacity="0.2" stroke-width="3" stroke-linecap="round" stroke-linejoin="round"/>
<path d="M40.7049 38.6074C40.7214 51.0148 37.5714 63.2211 31.553 74.071" stroke="#4863E8" stroke-width="3" stroke-linecap="round" stroke-linejoin="round"/>
<path d="M40.7049 38.6074C40.7214 51.0148 37.5714 63.2211 31.553 74.071" stroke="url(#paint1_linear_1366_2414)" stroke-opacity="0.2" stroke-width="3" stroke-linecap="round" stroke-linejoin="round"/>
<path d="M28.5024 38.6068C28.5024 35.3705 29.7881 32.2668 32.0765 29.9783C34.3649 27.6899 37.4687 26.4043 40.705 26.4043C43.9413 26.4043 47.045 27.6899 49.3335 29.9783C51.6219 32.2668 52.9075 35.3705 52.9075 38.6068C52.9327 51.1855 50.1582 63.6122 44.7852 74.9856" stroke="#4863E8" stroke-width="3" stroke-linecap="round" stroke-linejoin="round"/>
<path d="M28.5024 38.6068C28.5024 35.3705 29.7881 32.2668 32.0765 29.9783C34.3649 27.6899 37.4687 26.4043 40.705 26.4043C43.9413 26.4043 47.045 27.6899 49.3335 29.9783C51.6219 32.2668 52.9075 35.3705 52.9075 38.6068C52.9327 51.1855 50.1582 63.6122 44.7852 74.9856" stroke="url(#paint2_linear_1366_2414)" stroke-opacity="0.2" stroke-width="3" stroke-linecap="round" stroke-linejoin="round"/>
<path d="M75.2533 59.962C76.6194 52.9259 77.3089 45.7751 77.3125 38.6076C77.3125 28.8987 73.4556 19.5874 66.5904 12.7221C59.7251 5.85686 50.4138 2 40.7049 2C30.996 2 21.6847 5.85686 14.8194 12.7221C7.95417 19.5874 4.09731 28.8987 4.09731 38.6076C4.10822 42.7657 3.39862 46.8943 2 50.8101" stroke="#4863E8" stroke-width="3" stroke-linecap="round" stroke-linejoin="round"/>
<path d="M75.2533 59.962C76.6194 52.9259 77.3089 45.7751 77.3125 38.6076C77.3125 28.8987 73.4556 19.5874 66.5904 12.7221C59.7251 5.85686 50.4138 2 40.7049 2C30.996 2 21.6847 5.85686 14.8194 12.7221C7.95417 19.5874 4.09731 28.8987 4.09731 38.6076C4.10822 42.7657 3.39862 46.8943 2 50.8101" stroke="url(#paint3_linear_1366_2414)" stroke-opacity="0.2" stroke-width="3" stroke-linecap="round" stroke-linejoin="round"/>
<path d="M27.2819 50.8105C25.9648 57.2267 23.6349 63.3923 20.3799 69.0762" stroke="#4863E8" stroke-width="3" stroke-linecap="round" stroke-linejoin="round"/>
<path d="M27.2819 50.8105C25.9648 57.2267 23.6349 63.3923 20.3799 69.0762" stroke="url(#paint4_linear_1366_2414)" stroke-opacity="0.2" stroke-width="3" stroke-linecap="round" stroke-linejoin="round"/>
<path d="M37.6543 14.3938C38.6667 14.2721 39.6852 14.2084 40.7049 14.2031C47.1776 14.2031 53.3851 16.7744 57.9619 21.3512C62.5388 25.928 65.11 32.1356 65.11 38.6082C65.1065 42.6875 64.8518 46.7627 64.3473 50.8107" stroke="#4863E8" stroke-width="3" stroke-linecap="round" stroke-linejoin="round"/>
<path d="M37.6543 14.3938C38.6667 14.2721 39.6852 14.2084 40.7049 14.2031C47.1776 14.2031 53.3851 16.7744 57.9619 21.3512C62.5388 25.928 65.11 32.1356 65.11 38.6082C65.1065 42.6875 64.8518 46.7627 64.3473 50.8107" stroke="url(#paint5_linear_1366_2414)" stroke-opacity="0.2" stroke-width="3" stroke-linecap="round" stroke-linejoin="round"/>
<path d="M62.0214 63.0117C61.4494 65.2616 60.8012 67.5114 60.0767 69.685" stroke="#4863E8" stroke-width="3" stroke-linecap="round" stroke-linejoin="round"/>
<path d="M62.0214 63.0117C61.4494 65.2616 60.8012 67.5114 60.0767 69.685" stroke="url(#paint6_linear_1366_2414)" stroke-opacity="0.2" stroke-width="3" stroke-linecap="round" stroke-linejoin="round"/>
<defs>
<linearGradient id="paint0_linear_1366_2414" x1="18.3396" y1="19.541" x2="18.3396" y2="60.3051" gradientUnits="userSpaceOnUse">
<stop stop-color="#EF015A"/>
<stop offset="1" stop-color="#EF015A" stop-opacity="0"/>
</linearGradient>
<linearGradient id="paint1_linear_1366_2414" x1="36.129" y1="38.6074" x2="36.129" y2="74.071" gradientUnits="userSpaceOnUse">
<stop stop-color="#EF015A"/>
<stop offset="1" stop-color="#EF015A" stop-opacity="0"/>
</linearGradient>
<linearGradient id="paint2_linear_1366_2414" x1="40.7051" y1="26.4043" x2="40.7051" y2="74.9856" gradientUnits="userSpaceOnUse">
<stop stop-color="#EF015A"/>
<stop offset="1" stop-color="#EF015A" stop-opacity="0"/>
</linearGradient>
<linearGradient id="paint3_linear_1366_2414" x1="39.6562" y1="2" x2="39.6562" y2="59.962" gradientUnits="userSpaceOnUse">
<stop stop-color="#EF015A"/>
<stop offset="1" stop-color="#EF015A" stop-opacity="0"/>
</linearGradient>
<linearGradient id="paint4_linear_1366_2414" x1="23.8309" y1="50.8105" x2="23.8309" y2="69.0762" gradientUnits="userSpaceOnUse">
<stop stop-color="#EF015A"/>
<stop offset="1" stop-color="#EF015A" stop-opacity="0"/>
</linearGradient>
<linearGradient id="paint5_linear_1366_2414" x1="51.3821" y1="14.2031" x2="51.3821" y2="50.8107" gradientUnits="userSpaceOnUse">
<stop stop-color="#EF015A"/>
<stop offset="1" stop-color="#EF015A" stop-opacity="0"/>
</linearGradient>
<linearGradient id="paint6_linear_1366_2414" x1="61.049" y1="63.0117" x2="61.049" y2="69.685" gradientUnits="userSpaceOnUse">
<stop stop-color="#EF015A"/>
<stop offset="1" stop-color="#EF015A" stop-opacity="0"/>
</linearGradient>
</defs>
</svg>
