<svg width="24" height="24" viewBox="0 0 24 24" fill="none" xmlns="http://www.w3.org/2000/svg">
<g opacity="0.5">
<path d="M16.4999 12C16.5023 14.932 15.9322 17.8364 14.8218 20.55" stroke="white" stroke-width="2" stroke-linecap="round" stroke-linejoin="round"/>
<path d="M15.3563 8.9985C14.7488 8.31842 13.9492 7.83891 13.0631 7.62348C12.1771 7.40806 11.2465 7.46688 10.3947 7.79217C9.54284 8.11746 8.80991 8.69386 8.29298 9.44502C7.77605 10.1962 7.49951 11.0867 7.5 11.9985C7.50558 14.2851 6.92457 16.5349 5.8125 18.5329" stroke="white" stroke-width="2" stroke-linecap="round" stroke-linejoin="round"/>
<path d="M9 3.51566C9.96271 3.1718 10.9777 2.99735 12 3.00003C14.3869 3.00003 16.6761 3.94824 18.364 5.63607C20.0518 7.3239 21 9.61308 21 12C20.999 14.0184 20.7758 16.0305 20.3344 18" stroke="white" stroke-width="2" stroke-linecap="round" stroke-linejoin="round"/>
<path d="M2.18457 15.75C2.7243 14.5736 3.00257 13.2943 3.0002 12C2.99914 10.7343 3.26589 9.4827 3.78294 8.32743C4.29998 7.17215 5.05562 6.13935 6.0002 5.29688" stroke="white" stroke-width="2" stroke-linecap="round" stroke-linejoin="round"/>
<path d="M10.3687 19.5C10.1812 19.9125 9.975 20.325 9.75 20.7188" stroke="white" stroke-width="2" stroke-linecap="round" stroke-linejoin="round"/>
<path d="M12.0001 12C12.0024 13.5183 11.8103 15.0306 11.4282 16.5" stroke="white" stroke-width="2" stroke-linecap="round" stroke-linejoin="round"/>
</g>
</svg>
