<svg width="24" height="24" viewBox="0 0 24 24" fill="none" xmlns="http://www.w3.org/2000/svg">
<path d="M15.13 7.96691L18.2908 4.80615M20.0969 3L18.2908 4.80615L20.0969 3ZM11.4184 11.6785C11.8847 12.1386 12.2554 12.6864 12.5091 13.2903C12.7628 13.8943 12.8945 14.5424 12.8967 15.1975C12.8989 15.8526 12.7715 16.5016 12.5219 17.1072C12.2722 17.7128 11.9052 18.2631 11.442 18.7263C10.9788 19.1895 10.4285 19.5565 9.82292 19.8061C9.2173 20.0558 8.56828 20.1832 7.91322 20.181C7.25816 20.1788 6.61 20.0471 6.00607 19.7933C5.40214 19.5396 4.85436 19.169 4.39427 18.7027C3.48951 17.7659 2.98887 16.5112 3.00019 15.2089C3.0115 13.9066 3.53387 12.6609 4.45477 11.74C5.37568 10.819 6.62144 10.2967 7.92375 10.2854C9.22606 10.274 10.4807 10.7747 11.4175 11.6794L11.4184 11.6785ZM11.4184 11.6785L15.13 7.96691L11.4184 11.6785ZM15.13 7.96691L17.8392 10.6761L21 7.51537L18.2908 4.80615L15.13 7.96691Z" stroke-width="2" stroke-linecap="round" stroke-linejoin="round"/>
</svg>
