<svg width="20" height="20" viewBox="0 0 20 20" fill="none" xmlns="http://www.w3.org/2000/svg">
<path d="M5.78328 18.5705H3.17039C2.70841 18.5705 2.26534 18.3899 1.93866 18.0684C1.61199 17.7469 1.42847 17.3109 1.42847 16.8562V10.8562C1.42847 10.4016 1.61199 9.96556 1.93866 9.64407C2.26534 9.32258 2.70841 9.14197 3.17039 9.14197H5.78328M11.88 7.4277V3.99915C11.88 3.31717 11.6047 2.66312 11.1147 2.18088C10.6247 1.69865 9.96011 1.42773 9.26713 1.42773L5.78328 9.14197V18.5705H15.6077C16.0278 18.5752 16.4355 18.4303 16.7556 18.1625C17.0757 17.8947 17.2867 17.5221 17.3497 17.1133L18.5516 9.39911C18.5895 9.15342 18.5727 8.90256 18.5022 8.6639C18.4318 8.42525 18.3096 8.20451 18.1439 8.01699C17.9782 7.82947 17.773 7.67964 17.5426 7.57788C17.3123 7.47613 17.0622 7.42488 16.8097 7.4277H11.88Z"  stroke-width="2" stroke-linecap="round" stroke-linejoin="round"/>
</svg>
