<svg width="24" height="24" viewBox="0 0 24 24" fill="none" xmlns="http://www.w3.org/2000/svg">
  <path d="M12 16.5L12 7.5"  stroke-width="2" stroke-linecap="round" stroke-linejoin="round"/>
  <path d="M16.5 14.25L16.5 18C16.5 19.1935 16.0259 20.3381 15.182 21.182C14.3381 22.0259 13.1935 22.5 12 22.5C10.8065 22.5 9.66193 22.0259 8.81802 21.182C7.97411 20.3381 7.5 19.1935 7.5 18L7.5 14.25"  stroke-width="2" stroke-linecap="round" stroke-linejoin="round"/>
  <path d="M16.5 9.75L16.5 6C16.5 4.80653 16.0259 3.66193 15.182 2.81802C14.3381 1.9741 13.1935 1.5 12 1.5C10.8065 1.5 9.66193 1.9741 8.81802 2.81802C7.97411 3.66193 7.5 4.80653 7.5 6L7.5 9.75"  stroke-width="2" stroke-linecap="round" stroke-linejoin="round"/>
</svg>
