<svg width="37" height="39" viewBox="0 0 37 39" fill="none" xmlns="http://www.w3.org/2000/svg">
<path d="M27.2523 15.3004C24.7646 14.5523 23.3531 11.9365 24.0988 9.45647C24.3271 8.6975 24.7319 8.03943 25.2537 7.51329C24.3119 6.97482 23.2952 6.53386 22.2111 6.20789C14.5423 3.90187 6.46159 8.23031 4.16265 15.8756C1.86371 23.5209 6.21698 31.5882 13.8858 33.8942C21.5546 36.2002 29.6353 31.8718 31.9343 24.2265C32.9307 20.9127 32.6768 17.519 31.445 14.5504C30.2898 15.4211 28.747 15.7498 27.2523 15.3004Z" fill="#4863E8"/>
<path d="M27.2523 15.3004C24.7646 14.5523 23.3531 11.9365 24.0988 9.45647C24.3271 8.6975 24.7319 8.03943 25.2537 7.51329C24.3119 6.97482 23.2952 6.53386 22.2111 6.20789C14.5423 3.90187 6.46159 8.23031 4.16265 15.8756C1.86371 23.5209 6.21698 31.5882 13.8858 33.8942C21.5546 36.2002 29.6353 31.8718 31.9343 24.2265C32.9307 20.9127 32.6768 17.519 31.445 14.5504C30.2898 15.4211 28.747 15.7498 27.2523 15.3004Z" fill="black"/>
<path d="M25.2536 7.51354C28.0881 9.13401 30.236 11.6379 31.4448 14.5506C32.2116 13.9722 32.8084 13.1539 33.1057 12.1651C33.8515 9.68512 32.4399 7.06929 29.9523 6.32125C28.227 5.80246 26.4367 6.32019 25.2536 7.51354Z" fill="#4863E8"/>
<path d="M25.2536 7.51354C28.0881 9.13401 30.236 11.6379 31.4448 14.5506C32.2116 13.9722 32.8084 13.1539 33.1057 12.1651C33.8515 9.68512 32.4399 7.06929 29.9523 6.32125C28.227 5.80246 26.4367 6.32019 25.2536 7.51354Z" fill="white"/>
</svg>
