<svg width="56" height="56" viewBox="0 0 56 56" fill="none" xmlns="http://www.w3.org/2000/svg">
<path d="M42.2786 20.618C38.4194 19.4556 36.2295 15.3908 37.3864 11.5369C37.7405 10.3576 38.3686 9.33495 39.1781 8.51735C37.717 7.68059 36.1396 6.99537 34.4579 6.48882C22.5606 2.90539 10.0244 9.63155 6.45786 21.5119C2.89132 33.3922 9.64489 45.9285 21.5421 49.5119C33.4394 53.0953 45.9756 46.3692 49.5421 34.4888C51.088 29.3393 50.6941 24.0656 48.7831 19.4526C46.991 20.8057 44.5975 21.3165 42.2786 20.618Z" fill="#4863E8"/>
<path d="M42.2786 20.618C38.4194 19.4556 36.2295 15.3908 37.3864 11.5369C37.7405 10.3576 38.3686 9.33495 39.1781 8.51735C37.717 7.68059 36.1396 6.99537 34.4579 6.48882C22.5606 2.90539 10.0244 9.63155 6.45786 21.5119C2.89132 33.3922 9.64489 45.9285 21.5421 49.5119C33.4394 53.0953 45.9756 46.3692 49.5421 34.4888C51.088 29.3393 50.6941 24.0656 48.7831 19.4526C46.991 20.8057 44.5975 21.3165 42.2786 20.618Z" fill="url(#paint0_linear_1375_2749)" fill-opacity="0.2"/>
<path d="M39.178 8.5172C43.5753 11.0353 46.9075 14.9262 48.7829 19.4525C49.9724 18.5537 50.8983 17.2821 51.3596 15.7455C52.5165 11.8917 50.3267 7.82686 46.4674 6.66444C43.7908 5.85827 41.0135 6.6628 39.178 8.5172Z" fill="#4863E8"/>
<path d="M39.178 8.5172C43.5753 11.0353 46.9075 14.9262 48.7829 19.4525C49.9724 18.5537 50.8983 17.2821 51.3596 15.7455C52.5165 11.8917 50.3267 7.82686 46.4674 6.66444C43.7908 5.85827 41.0135 6.6628 39.178 8.5172Z" fill="white"/>
<defs>
<linearGradient id="paint0_linear_1375_2749" x1="6.45786" y1="21.5119" x2="49.5539" y2="34.4495" gradientUnits="userSpaceOnUse">
<stop stop-color="#EF015A"/>
<stop offset="1" stop-color="#EF015A" stop-opacity="0"/>
</linearGradient>
</defs>
</svg>
