<svg width="24" height="24" viewBox="0 0 24 24" fill="none" xmlns="http://www.w3.org/2000/svg">
<g>
<path d="M20.3155 14.3055C18.843 14.7184 17.2871 14.7319 15.8077 14.3447C14.3282 13.9574 12.9785 13.1834 11.8971 12.102C10.8157 11.0206 10.0417 9.67089 9.65441 8.19143C9.26717 6.71197 9.28071 5.1561 9.69362 3.68359C8.24187 4.08767 6.92132 4.86505 5.8635 5.93831C4.80569 7.01157 4.04753 8.34325 3.66455 9.80071C3.28156 11.2582 3.28712 12.7905 3.68066 14.2452C4.0742 15.6998 4.84199 17.026 5.90755 18.0915C6.97312 19.1571 8.29927 19.9249 9.75391 20.3184C11.2086 20.712 12.7409 20.7175 14.1984 20.3345C15.6558 19.9516 16.9875 19.1934 18.0608 18.1356C19.134 17.0778 19.9114 15.7572 20.3155 14.3055V14.3055Z"  stroke-width="2" stroke-linecap="round" stroke-linejoin="round"/>
</g>
</svg>
