<svg width="18" height="18" viewBox="0 0 18 18" fill="none" xmlns="http://www.w3.org/2000/svg">
<path d="M6.68509 1.28516H2.05699C1.63099 1.28516 1.28564 1.6305 1.28564 2.05651V6.6846C1.28564 7.1106 1.63099 7.45595 2.05699 7.45595H6.68509C7.11109 7.45595 7.45644 7.1106 7.45644 6.6846V2.05651C7.45644 1.6305 7.11109 1.28516 6.68509 1.28516Z" stroke-width="2" stroke-linecap="round" stroke-linejoin="round"/>
<path d="M6.68509 10.541H2.05699C1.63099 10.541 1.28564 10.8864 1.28564 11.3124V15.9405C1.28564 16.3665 1.63099 16.7118 2.05699 16.7118H6.68509C7.11109 16.7118 7.45644 16.3665 7.45644 15.9405V11.3124C7.45644 10.8864 7.11109 10.541 6.68509 10.541Z" stroke-width="2" stroke-linecap="round" stroke-linejoin="round"/>
<path d="M15.9407 1.28516H11.3126C10.8866 1.28516 10.5413 1.6305 10.5413 2.05651V6.6846C10.5413 7.1106 10.8866 7.45595 11.3126 7.45595H15.9407C16.3667 7.45595 16.7121 7.1106 16.7121 6.6846V2.05651C16.7121 1.6305 16.3667 1.28516 15.9407 1.28516Z" stroke-width="2" stroke-linecap="round" stroke-linejoin="round"/>
<path d="M10.5413 10.541V13.6264" stroke-width="2" stroke-linecap="round" stroke-linejoin="round"/>
<path d="M10.5413 16.7118H13.6267V10.541" stroke-width="2" stroke-linecap="round" stroke-linejoin="round"/>
<path d="M13.6289 12.084H16.7143" stroke-width="2" stroke-linecap="round" stroke-linejoin="round"/>
<path d="M16.7126 15.1699V16.7126" stroke-width="2" stroke-linecap="round" stroke-linejoin="round"/>
</svg>
