<svg width="18" height="18" viewBox="0 0 18 18" fill="none" xmlns="http://www.w3.org/2000/svg">
<path d="M8.99993 10.0497C9.53249 10.0497 9.96422 9.61794 9.96422 9.08538C9.96422 8.55282 9.53249 8.12109 8.99993 8.12109C8.46737 8.12109 8.03564 8.55282 8.03564 9.08538C8.03564 9.61794 8.46737 10.0497 8.99993 10.0497Z" stroke-width="2" stroke-linecap="round" stroke-linejoin="round"/>
<path d="M15.7499 10.0497C16.2825 10.0497 16.7142 9.61794 16.7142 9.08538C16.7142 8.55282 16.2825 8.12109 15.7499 8.12109C15.2174 8.12109 14.7856 8.55282 14.7856 9.08538C14.7856 9.61794 15.2174 10.0497 15.7499 10.0497Z" stroke-width="2" stroke-linecap="round" stroke-linejoin="round"/>
<path d="M2.24993 10.0497C2.78249 10.0497 3.21422 9.61794 3.21422 9.08538C3.21422 8.55282 2.78249 8.12109 2.24993 8.12109C1.71737 8.12109 1.28564 8.55282 1.28564 9.08538C1.28564 9.61794 1.71737 10.0497 2.24993 10.0497Z" stroke-width="2" stroke-linecap="round" stroke-linejoin="round"/>
</svg>
