<svg width="24" height="24" viewBox="0 0 24 24" fill="none" xmlns="http://www.w3.org/2000/svg">
<g>
<path d="M12.4125 17.8762L17.1375 20.8762C17.7469 21.2606 18.4969 20.6887 18.3187 19.9856L16.95 14.6043C16.913 14.4552 16.9189 14.2986 16.967 14.1526C17.0151 14.0067 17.1034 13.8773 17.2219 13.7793L21.4594 10.2449C22.0125 9.78557 21.7312 8.85744 21.0094 8.81057L15.4781 8.45432C15.3272 8.44554 15.1821 8.39298 15.0606 8.30308C14.939 8.21318 14.8463 8.08981 14.7937 7.94807L12.7312 2.75432C12.6767 2.60423 12.5772 2.47457 12.4464 2.38295C12.3156 2.29133 12.1597 2.24219 12 2.24219C11.8403 2.24219 11.6844 2.29133 11.5536 2.38295C11.4228 2.47457 11.3233 2.60423 11.2687 2.75432L9.20625 7.94807C9.15368 8.08981 9.06096 8.21318 8.93943 8.30308C8.81789 8.39298 8.67279 8.44554 8.52187 8.45432L2.99062 8.81057C2.26875 8.85744 1.9875 9.78557 2.54062 10.2449L6.77812 13.7793C6.89656 13.8773 6.98492 14.0067 7.03302 14.1526C7.08112 14.2986 7.08701 14.4552 7.05 14.6043L5.78437 19.5918C5.56875 20.4356 6.46875 21.1199 7.19062 20.6606L11.5875 17.8762C11.7108 17.7978 11.8539 17.7562 12 17.7562C12.1461 17.7562 12.2892 17.7978 12.4125 17.8762V17.8762Z"  stroke-width="2" stroke-linecap="round" stroke-linejoin="round"/>
</g>
</svg>
