<svg width="24" height="24" viewBox="0 0 24 24" fill="none" xmlns="http://www.w3.org/2000/svg">
<path d="M12.412 17.8801L17.137 20.8801C17.7464 21.2645 18.4964 20.6926 18.3183 19.9895L16.9495 14.6082C16.9125 14.4591 16.9184 14.3025 16.9665 14.1565C17.0146 14.0106 17.1029 13.8812 17.2214 13.7832L21.4589 10.2489C22.012 9.78948 21.7308 8.86135 21.0089 8.81448L15.4776 8.45823C15.3267 8.44944 15.1816 8.39689 15.0601 8.30699C14.9385 8.21708 14.8458 8.09372 14.7933 7.95198L12.7308 2.75823C12.6762 2.60814 12.5767 2.47848 12.4459 2.38686C12.3151 2.29524 12.1592 2.24609 11.9995 2.24609C11.8398 2.24609 11.684 2.29524 11.5531 2.38686C11.4223 2.47848 11.3229 2.60814 11.2683 2.75823L9.20576 7.95198C9.15319 8.09372 9.06048 8.21708 8.93894 8.30699C8.8174 8.39689 8.6723 8.44944 8.52138 8.45823L2.99013 8.81448C2.26826 8.86135 1.98701 9.78948 2.54013 10.2489L6.77763 13.7832C6.89607 13.8812 6.98443 14.0106 7.03253 14.1565C7.08063 14.3025 7.08652 14.4591 7.04951 14.6082L5.78388 19.5957C5.56826 20.4395 6.46826 21.1238 7.19013 20.6645L11.587 17.8801C11.7103 17.8017 11.8534 17.7601 11.9995 17.7601C12.1456 17.7601 12.2887 17.8017 12.412 17.8801Z" />
</svg>
