<svg width="24" height="25" viewBox="0 0 24 25" fill="none" xmlns="http://www.w3.org/2000/svg">
<g>
<path d="M3.75 11.2531V5.75C3.75 5.55109 3.82902 5.36032 3.96967 5.21967C4.11032 5.07902 4.30109 5 4.5 5H19.5C19.6989 5 19.8897 5.07902 20.0303 5.21967C20.171 5.36032 20.25 5.55109 20.25 5.75V11.2531C20.25 19.1281 13.5656 21.7344 12.2344 22.175C12.0831 22.231 11.9169 22.231 11.7656 22.175C10.4344 21.7344 3.75 19.1281 3.75 11.2531Z"  stroke-width="2" stroke-linecap="round" stroke-linejoin="round"/>
<path d="M12 9.5V13.25"  stroke-width="2" stroke-linecap="round" stroke-linejoin="round"/>
<path d="M8.4375 12.0859L12 13.2484"  stroke-width="2" stroke-linecap="round" stroke-linejoin="round"/>
<path d="M9.79688 16.2875L12 13.25"  stroke-width="2" stroke-linecap="round" stroke-linejoin="round"/>
<path d="M14.2031 16.2875L12 13.25"  stroke-width="2" stroke-linecap="round" stroke-linejoin="round"/>
<path d="M15.5625 12.0859L12 13.2484"  stroke-width="2" stroke-linecap="round" stroke-linejoin="round"/>
</g>
</svg>
