<svg width="20" height="14" viewBox="0 0 20 14" fill="none" xmlns="http://www.w3.org/2000/svg">
<g>
<path fill-rule="evenodd" clip-rule="evenodd" d="M10.7826 7.36371C10.7739 7.3543 10.765 7.34501 10.7558 7.33586C10.5604 7.14047 10.3043 7.04284 10.0482 7.04297C9.79208 7.04284 9.53594 7.14047 9.34055 7.33586C9.3314 7.34502 9.32245 7.3543 9.31373 7.36372L5.89056 10.7869L2.43953 7.33586C2.049 6.94534 1.41584 6.94534 1.02532 7.33586C0.634791 7.72639 0.634791 8.35955 1.02532 8.75008L5.18345 12.9082C5.57398 13.2987 6.20714 13.2987 6.59766 12.9082L10.0482 9.4577L13.4987 12.9082C13.8892 13.2987 14.5224 13.2987 14.9129 12.9082L19.071 8.75008C19.4616 8.35955 19.4616 7.72639 19.071 7.33586C18.6805 6.94534 18.0473 6.94534 17.6568 7.33586L14.2058 10.7869L10.7826 7.36371Z" fill="white"/>
<path d="M5.35706 4.66052C7.93099 2.08659 12.1042 2.08659 14.6781 4.66052" stroke-width="2" stroke-linecap="round"/>
</g>
</svg>
