<svg width="48" height="48" viewBox="0 0 48 48" fill="none" xmlns="http://www.w3.org/2000/svg">
<path d="M24 42C33.9411 42 42 33.9411 42 24C42 14.0589 33.9411 6 24 6C14.0589 6 6 14.0589 6 24C6 33.9411 14.0589 42 24 42Z" stroke="black" stroke-width="3" stroke-miterlimit="10"/>
<path d="M24 42C33.9411 42 42 33.9411 42 24C42 14.0589 33.9411 6 24 6C14.0589 6 6 14.0589 6 24C6 33.9411 14.0589 42 24 42Z" stroke="#4863E8" stroke-width="3" stroke-miterlimit="10"/>
<path d="M24 42C33.9411 42 42 33.9411 42 24C42 14.0589 33.9411 6 24 6C14.0589 6 6 14.0589 6 24C6 33.9411 14.0589 42 24 42Z" stroke="url(#paint0_linear_3739_5697)" stroke-opacity="0.2" stroke-width="3" stroke-miterlimit="10"/>
<path d="M30 18L18 30" stroke="black" stroke-width="3" stroke-linecap="round" stroke-linejoin="round"/>
<path d="M30 18L18 30" stroke="#4863E8" stroke-width="3" stroke-linecap="round" stroke-linejoin="round"/>
<path d="M30 18L18 30" stroke="url(#paint1_linear_3739_5697)" stroke-opacity="0.2" stroke-width="3" stroke-linecap="round" stroke-linejoin="round"/>
<path d="M30 30L18 18" stroke="black" stroke-width="3" stroke-linecap="round" stroke-linejoin="round"/>
<path d="M30 30L18 18" stroke="#4863E8" stroke-width="3" stroke-linecap="round" stroke-linejoin="round"/>
<path d="M30 30L18 18" stroke="url(#paint2_linear_3739_5697)" stroke-opacity="0.2" stroke-width="3" stroke-linecap="round" stroke-linejoin="round"/>
<defs>
<linearGradient id="paint0_linear_3739_5697" x1="24" y1="6" x2="24" y2="42" gradientUnits="userSpaceOnUse">
<stop stop-color="#EF015A"/>
<stop offset="1" stop-color="#EF015A" stop-opacity="0"/>
</linearGradient>
<linearGradient id="paint1_linear_3739_5697" x1="24" y1="18" x2="24" y2="30" gradientUnits="userSpaceOnUse">
<stop stop-color="#EF015A"/>
<stop offset="1" stop-color="#EF015A" stop-opacity="0"/>
</linearGradient>
<linearGradient id="paint2_linear_3739_5697" x1="24" y1="18" x2="24" y2="30" gradientUnits="userSpaceOnUse">
<stop stop-color="#EF015A"/>
<stop offset="1" stop-color="#EF015A" stop-opacity="0"/>
</linearGradient>
</defs>
</svg>
