<svg width="203" height="165" viewBox="0 0 203 165" fill="none" xmlns="http://www.w3.org/2000/svg">
  <circle cx="77.2975" cy="157.718" r="7.02701" fill="#12A481"/>
  <circle cx="136.525" cy="148.683" r="4.01543" fill="#12A481"/>
  <circle cx="5.01929" cy="55.324" r="5.01929" fill="#12A481"/>
  <circle cx="189.729" cy="53.3163" r="3.01157" fill="#12A481"/>
  <circle cx="175.675" cy="121.578" r="7.02701" fill="#12A481"/>
  <circle cx="146.563" cy="24.2066" r="8.03087" fill="#12A481"/>
  <circle cx="67.2586" cy="5.13257" r="5.01929" fill="#12A481"/>
  <circle cx="47.1814" cy="117.562" r="5.01929" fill="#12A481"/>
  <path d="M171 89.159C171 89.159 183.793 82.7709 186.695 86.1191C188.29 87.9586 189.494 90.1865 188.066 91.9966C186.965 93.392 185.376 93.5699 183.514 93.242C179.571 92.5478 179.631 87.058 181.213 83.6581C183.399 78.9639 195 81.7346 195 81.7346" stroke="#EF015A" stroke-width="2"/>
  <path d="M12.5323 105.368C12.5323 105.368 14.4487 91.1979 18.8495 90.6823C21.2673 90.3991 23.7866 90.6571 24.4797 92.856C25.0139 94.5511 24.2669 95.965 22.9483 97.32C20.1559 100.189 15.651 97.0513 13.7307 93.8299C11.0794 89.3821 19.897 81.35 19.897 81.35" stroke="#EF015A" stroke-width="2"/>
  <path d="M43.2815 54.5992C43.2815 54.5992 41.6125 44.6711 46.4024 42.6923C50.4263 41.0299 53.9149 48.3816 57.2213 45.7163C60.5705 43.0165 52.2099 38.7395 54.9327 35.5104C57.7983 32.112 67 35.5104 67 35.5104" stroke="#4863E8" stroke-width="2"/>
  <path d="M97.2815 144.599C97.2815 144.599 95.6125 134.671 100.402 132.692C104.426 131.03 107.915 138.382 111.221 135.716C114.57 133.017 106.21 128.74 108.933 125.51C111.798 122.112 121 125.51 121 125.51" stroke="#4863E8" stroke-width="2"/>
  <path d="M195.016 7.10517C195.016 7.10517 200.258 15.6997 196.549 19.3184C193.432 22.3585 187.459 16.8324 185.381 20.5364C183.277 24.2884 192.628 25.1481 191.302 29.1583C189.907 33.379 180.101 33.6477 180.101 33.6477" stroke="#4863E8" stroke-width="2"/>
</svg>
